<mxfile host="app.diagrams.net" agent="Mozilla/5.0 (Windows NT 10.0; Win64; x64) AppleWebKit/537.36 (KHTML, like Gecko) Chrome/135.0.0.0 Safari/537.36 Edg/135.0.0.0" version="26.2.12" pages="2">
  <diagram name="ex02" id="9synToRyrRu1UAYftwYI">
    <mxGraphModel dx="2179" dy="756" grid="1" gridSize="10" guides="1" tooltips="1" connect="1" arrows="1" fold="1" page="1" pageScale="1" pageWidth="827" pageHeight="1169" math="0" shadow="0">
      <root>
        <mxCell id="0" />
        <mxCell id="1" parent="0" />
        <mxCell id="2_GQjSXcazI8ApmPF3El-62" value="" style="endArrow=none;html=1;rounded=0;" edge="1" parent="1">
          <mxGeometry width="50" height="50" relative="1" as="geometry">
            <mxPoint x="320" y="497" as="sourcePoint" />
            <mxPoint x="320" y="415" as="targetPoint" />
          </mxGeometry>
        </mxCell>
        <mxCell id="JPgSeD2Q4nJU5MVYmd5n-11" value="cartao" style="text;html=1;align=center;verticalAlign=middle;whiteSpace=wrap;rounded=0;" vertex="1" parent="1">
          <mxGeometry x="320" y="425" width="60" height="30" as="geometry" />
        </mxCell>
        <mxCell id="2_GQjSXcazI8ApmPF3El-24" value="" style="endArrow=none;html=1;rounded=0;entryX=0.25;entryY=1;entryDx=0;entryDy=0;" edge="1" parent="1" target="JPgSeD2Q4nJU5MVYmd5n-2">
          <mxGeometry width="50" height="50" relative="1" as="geometry">
            <mxPoint x="60.5" y="260" as="sourcePoint" />
            <mxPoint x="60.5" y="180" as="targetPoint" />
          </mxGeometry>
        </mxCell>
        <mxCell id="2_GQjSXcazI8ApmPF3El-44" value="" style="endArrow=none;html=1;rounded=0;exitX=0.5;exitY=1;exitDx=0;exitDy=0;" edge="1" parent="1">
          <mxGeometry width="50" height="50" relative="1" as="geometry">
            <mxPoint x="594" y="325" as="sourcePoint" />
            <mxPoint x="595" y="175.5" as="targetPoint" />
          </mxGeometry>
        </mxCell>
        <mxCell id="2_GQjSXcazI8ApmPF3El-43" value="" style="endArrow=none;html=1;rounded=0;exitX=0.183;exitY=1.017;exitDx=0;exitDy=0;exitPerimeter=0;entryX=0.5;entryY=1;entryDx=0;entryDy=0;" edge="1" parent="1" source="JPgSeD2Q4nJU5MVYmd5n-4" target="2_GQjSXcazI8ApmPF3El-69">
          <mxGeometry width="50" height="50" relative="1" as="geometry">
            <mxPoint x="310" y="425" as="sourcePoint" />
            <mxPoint x="313" y="300" as="targetPoint" />
          </mxGeometry>
        </mxCell>
        <mxCell id="JPgSeD2Q4nJU5MVYmd5n-2" value="produto" style="rounded=0;whiteSpace=wrap;html=1;" vertex="1" parent="1">
          <mxGeometry x="30" y="115" width="120" height="60" as="geometry" />
        </mxCell>
        <mxCell id="JPgSeD2Q4nJU5MVYmd5n-3" value="cliente" style="rounded=0;whiteSpace=wrap;html=1;" vertex="1" parent="1">
          <mxGeometry x="550" y="115" width="120" height="60" as="geometry" />
        </mxCell>
        <mxCell id="JPgSeD2Q4nJU5MVYmd5n-4" value="compra" style="rounded=0;whiteSpace=wrap;html=1;" vertex="1" parent="1">
          <mxGeometry x="290" y="115" width="120" height="60" as="geometry" />
        </mxCell>
        <mxCell id="JPgSeD2Q4nJU5MVYmd5n-5" value="nome" style="text;html=1;align=center;verticalAlign=middle;whiteSpace=wrap;rounded=0;" vertex="1" parent="1">
          <mxGeometry x="596" y="225" width="60" height="30" as="geometry" />
        </mxCell>
        <mxCell id="JPgSeD2Q4nJU5MVYmd5n-6" value="nif" style="text;html=1;align=center;verticalAlign=middle;whiteSpace=wrap;rounded=0;" vertex="1" parent="1">
          <mxGeometry x="586" y="252.5" width="60" height="30" as="geometry" />
        </mxCell>
        <mxCell id="JPgSeD2Q4nJU5MVYmd5n-7" value="morada" style="text;html=1;align=center;verticalAlign=middle;whiteSpace=wrap;rounded=0;" vertex="1" parent="1">
          <mxGeometry x="600" y="282" width="60" height="30" as="geometry" />
        </mxCell>
        <mxCell id="JPgSeD2Q4nJU5MVYmd5n-8" value="telefone" style="text;html=1;align=center;verticalAlign=middle;whiteSpace=wrap;rounded=0;" vertex="1" parent="1">
          <mxGeometry x="600" y="306" width="60" height="30" as="geometry" />
        </mxCell>
        <mxCell id="JPgSeD2Q4nJU5MVYmd5n-9" value="quantidade" style="text;html=1;align=center;verticalAlign=middle;whiteSpace=wrap;rounded=0;" vertex="1" parent="1">
          <mxGeometry x="328" y="217.5" width="60" height="30" as="geometry" />
        </mxCell>
        <mxCell id="JPgSeD2Q4nJU5MVYmd5n-10" value="tipo" style="text;html=1;align=center;verticalAlign=middle;whiteSpace=wrap;rounded=0;" vertex="1" parent="1">
          <mxGeometry x="308" y="242.5" width="60" height="30" as="geometry" />
        </mxCell>
        <mxCell id="JPgSeD2Q4nJU5MVYmd5n-12" value="dinheiro" style="text;html=1;align=center;verticalAlign=middle;whiteSpace=wrap;rounded=0;" vertex="1" parent="1">
          <mxGeometry x="318" y="466" width="70" as="geometry" />
        </mxCell>
        <mxCell id="JPgSeD2Q4nJU5MVYmd5n-13" style="edgeStyle=orthogonalEdgeStyle;rounded=0;orthogonalLoop=1;jettySize=auto;html=1;exitX=0;exitY=0;exitDx=0;exitDy=0;" edge="1" parent="1" source="JPgSeD2Q4nJU5MVYmd5n-12" target="JPgSeD2Q4nJU5MVYmd5n-12">
          <mxGeometry relative="1" as="geometry" />
        </mxCell>
        <mxCell id="JPgSeD2Q4nJU5MVYmd5n-14" value="" style="ellipse;whiteSpace=wrap;html=1;aspect=fixed;" vertex="1" parent="1">
          <mxGeometry x="55" y="225" width="10" height="10" as="geometry" />
        </mxCell>
        <mxCell id="JPgSeD2Q4nJU5MVYmd5n-15" value="" style="ellipse;whiteSpace=wrap;html=1;aspect=fixed;" vertex="1" parent="1">
          <mxGeometry x="55" y="250" width="10" height="10" as="geometry" />
        </mxCell>
        <mxCell id="JPgSeD2Q4nJU5MVYmd5n-16" value="" style="ellipse;whiteSpace=wrap;html=1;aspect=fixed;" vertex="1" parent="1">
          <mxGeometry x="308" y="227.5" width="10" height="10" as="geometry" />
        </mxCell>
        <mxCell id="JPgSeD2Q4nJU5MVYmd5n-17" value="" style="ellipse;whiteSpace=wrap;html=1;aspect=fixed;" vertex="1" parent="1">
          <mxGeometry x="308" y="252.5" width="10" height="10" as="geometry" />
        </mxCell>
        <mxCell id="JPgSeD2Q4nJU5MVYmd5n-18" value="" style="ellipse;whiteSpace=wrap;html=1;aspect=fixed;" vertex="1" parent="1">
          <mxGeometry x="590" y="237.5" width="10" height="10" as="geometry" />
        </mxCell>
        <mxCell id="JPgSeD2Q4nJU5MVYmd5n-19" value="" style="ellipse;whiteSpace=wrap;html=1;aspect=fixed;" vertex="1" parent="1">
          <mxGeometry x="590" y="262.5" width="10" height="10" as="geometry" />
        </mxCell>
        <mxCell id="JPgSeD2Q4nJU5MVYmd5n-20" value="" style="ellipse;whiteSpace=wrap;html=1;aspect=fixed;" vertex="1" parent="1">
          <mxGeometry x="590" y="290" width="10" height="10" as="geometry" />
        </mxCell>
        <mxCell id="JPgSeD2Q4nJU5MVYmd5n-21" value="" style="ellipse;whiteSpace=wrap;html=1;aspect=fixed;" vertex="1" parent="1">
          <mxGeometry x="590" y="315" width="10" height="10" as="geometry" />
        </mxCell>
        <mxCell id="JPgSeD2Q4nJU5MVYmd5n-23" value="tem" style="rhombus;whiteSpace=wrap;html=1;" vertex="1" parent="1">
          <mxGeometry x="200" y="125" width="40" height="40" as="geometry" />
        </mxCell>
        <mxCell id="2_GQjSXcazI8ApmPF3El-3" value="N" style="text;html=1;align=center;verticalAlign=middle;whiteSpace=wrap;rounded=0;" vertex="1" parent="1">
          <mxGeometry x="247" y="123" width="60" height="30" as="geometry" />
        </mxCell>
        <mxCell id="2_GQjSXcazI8ApmPF3El-4" value="1" style="text;html=1;align=center;verticalAlign=middle;whiteSpace=wrap;rounded=0;fontFamily=Helvetica;fontSize=12;fontColor=default;" vertex="1" parent="1">
          <mxGeometry x="-20" y="110" width="60" height="30" as="geometry" />
        </mxCell>
        <mxCell id="2_GQjSXcazI8ApmPF3El-5" value="N" style="text;html=1;align=center;verticalAlign=middle;whiteSpace=wrap;rounded=0;" vertex="1" parent="1">
          <mxGeometry x="389" y="122" width="60" height="30" as="geometry" />
        </mxCell>
        <mxCell id="2_GQjSXcazI8ApmPF3El-8" value="" style="endArrow=none;html=1;rounded=0;entryX=1;entryY=0.5;entryDx=0;entryDy=0;" edge="1" parent="1" target="JPgSeD2Q4nJU5MVYmd5n-2">
          <mxGeometry width="50" height="50" relative="1" as="geometry">
            <mxPoint x="200" y="145" as="sourcePoint" />
            <mxPoint x="150" y="149" as="targetPoint" />
          </mxGeometry>
        </mxCell>
        <mxCell id="2_GQjSXcazI8ApmPF3El-13" value="" style="endArrow=none;html=1;rounded=0;entryX=1;entryY=0.5;entryDx=0;entryDy=0;" edge="1" parent="1" target="JPgSeD2Q4nJU5MVYmd5n-23">
          <mxGeometry width="50" height="50" relative="1" as="geometry">
            <mxPoint x="290" y="145" as="sourcePoint" />
            <mxPoint x="250" y="145" as="targetPoint" />
          </mxGeometry>
        </mxCell>
        <mxCell id="2_GQjSXcazI8ApmPF3El-14" value="tem" style="rhombus;whiteSpace=wrap;html=1;" vertex="1" parent="1">
          <mxGeometry x="460" y="125" width="40" height="40" as="geometry" />
        </mxCell>
        <mxCell id="2_GQjSXcazI8ApmPF3El-15" value="" style="endArrow=none;html=1;rounded=0;entryX=0;entryY=1;entryDx=0;entryDy=0;" edge="1" parent="1">
          <mxGeometry width="50" height="50" relative="1" as="geometry">
            <mxPoint x="460" y="145" as="sourcePoint" />
            <mxPoint x="410" y="145" as="targetPoint" />
          </mxGeometry>
        </mxCell>
        <mxCell id="2_GQjSXcazI8ApmPF3El-16" value="" style="endArrow=none;html=1;rounded=0;entryX=1;entryY=0.5;entryDx=0;entryDy=0;" edge="1" parent="1" target="2_GQjSXcazI8ApmPF3El-14">
          <mxGeometry width="50" height="50" relative="1" as="geometry">
            <mxPoint x="550" y="145" as="sourcePoint" />
            <mxPoint x="510" y="145" as="targetPoint" />
          </mxGeometry>
        </mxCell>
        <mxCell id="2_GQjSXcazI8ApmPF3El-17" value="ID" style="text;html=1;align=center;verticalAlign=middle;whiteSpace=wrap;rounded=0;" vertex="1" parent="1">
          <mxGeometry x="66" y="189" width="60" height="30" as="geometry" />
        </mxCell>
        <mxCell id="2_GQjSXcazI8ApmPF3El-18" value="" style="ellipse;whiteSpace=wrap;html=1;aspect=fixed;" vertex="1" parent="1">
          <mxGeometry x="56" y="199" width="10" height="10" as="geometry" />
        </mxCell>
        <mxCell id="2_GQjSXcazI8ApmPF3El-19" value="ID" style="text;html=1;align=center;verticalAlign=middle;whiteSpace=wrap;rounded=0;" vertex="1" parent="1">
          <mxGeometry x="305" y="189" width="60" height="30" as="geometry" />
        </mxCell>
        <mxCell id="2_GQjSXcazI8ApmPF3El-20" value="" style="ellipse;whiteSpace=wrap;html=1;aspect=fixed;" vertex="1" parent="1">
          <mxGeometry x="308" y="199" width="10" height="10" as="geometry" />
        </mxCell>
        <mxCell id="2_GQjSXcazI8ApmPF3El-21" value="ID" style="text;html=1;align=center;verticalAlign=middle;whiteSpace=wrap;rounded=0;" vertex="1" parent="1">
          <mxGeometry x="588" y="199" width="60" height="30" as="geometry" />
        </mxCell>
        <mxCell id="2_GQjSXcazI8ApmPF3El-22" value="" style="ellipse;whiteSpace=wrap;html=1;aspect=fixed;" vertex="1" parent="1">
          <mxGeometry x="590" y="209" width="10" height="10" as="geometry" />
        </mxCell>
        <mxCell id="2_GQjSXcazI8ApmPF3El-27" value="quantidade" style="text;html=1;align=center;verticalAlign=middle;whiteSpace=wrap;rounded=0;" vertex="1" parent="1">
          <mxGeometry x="195" y="205.5" width="60" height="30" as="geometry" />
        </mxCell>
        <mxCell id="2_GQjSXcazI8ApmPF3El-28" value="" style="ellipse;whiteSpace=wrap;html=1;aspect=fixed;" vertex="1" parent="1">
          <mxGeometry x="215" y="195.5" width="10" height="10" as="geometry" />
        </mxCell>
        <mxCell id="2_GQjSXcazI8ApmPF3El-29" value="" style="endArrow=none;html=1;rounded=0;" edge="1" parent="1">
          <mxGeometry width="50" height="50" relative="1" as="geometry">
            <mxPoint x="220" y="195" as="sourcePoint" />
            <mxPoint x="219.5" y="165" as="targetPoint" />
          </mxGeometry>
        </mxCell>
        <mxCell id="2_GQjSXcazI8ApmPF3El-30" value="categoria" style="rounded=0;whiteSpace=wrap;html=1;" vertex="1" parent="1">
          <mxGeometry x="-220" y="110" width="120" height="60" as="geometry" />
        </mxCell>
        <mxCell id="2_GQjSXcazI8ApmPF3El-31" value="stock" style="text;html=1;align=center;verticalAlign=middle;whiteSpace=wrap;rounded=0;" vertex="1" parent="1">
          <mxGeometry x="66" y="220" width="60" height="30" as="geometry" />
        </mxCell>
        <mxCell id="2_GQjSXcazI8ApmPF3El-34" value="N" style="text;html=1;align=center;verticalAlign=middle;whiteSpace=wrap;rounded=0;" vertex="1" parent="1">
          <mxGeometry x="-111" y="110" width="60" height="30" as="geometry" />
        </mxCell>
        <mxCell id="2_GQjSXcazI8ApmPF3El-35" value="" style="endArrow=none;html=1;rounded=0;entryX=0;entryY=1;entryDx=0;entryDy=0;" edge="1" parent="1">
          <mxGeometry width="50" height="50" relative="1" as="geometry">
            <mxPoint x="-50" y="135" as="sourcePoint" />
            <mxPoint x="-100" y="135" as="targetPoint" />
          </mxGeometry>
        </mxCell>
        <mxCell id="2_GQjSXcazI8ApmPF3El-58" style="edgeStyle=orthogonalEdgeStyle;rounded=0;orthogonalLoop=1;jettySize=auto;html=1;exitX=0;exitY=0.5;exitDx=0;exitDy=0;" edge="1" parent="1" source="2_GQjSXcazI8ApmPF3El-37">
          <mxGeometry relative="1" as="geometry">
            <mxPoint x="-100" y="135.33333333333337" as="targetPoint" />
          </mxGeometry>
        </mxCell>
        <mxCell id="2_GQjSXcazI8ApmPF3El-37" value="tem" style="rhombus;whiteSpace=wrap;html=1;" vertex="1" parent="1">
          <mxGeometry x="-50" y="115" width="40" height="40" as="geometry" />
        </mxCell>
        <mxCell id="2_GQjSXcazI8ApmPF3El-38" value="forma pagamento" style="rounded=0;whiteSpace=wrap;html=1;" vertex="1" parent="1">
          <mxGeometry x="298" y="355" width="120" height="60" as="geometry" />
        </mxCell>
        <mxCell id="2_GQjSXcazI8ApmPF3El-39" value="cheque" style="text;html=1;align=center;verticalAlign=middle;whiteSpace=wrap;rounded=0;" vertex="1" parent="1">
          <mxGeometry x="318" y="482" width="70" height="20" as="geometry" />
        </mxCell>
        <mxCell id="2_GQjSXcazI8ApmPF3El-42" value="&lt;b&gt;&lt;font style=&quot;font-size: 18px;&quot;&gt;Papelaria&lt;/font&gt;&lt;/b&gt;" style="text;html=1;align=center;verticalAlign=middle;whiteSpace=wrap;rounded=0;" vertex="1" parent="1">
          <mxGeometry x="195" y="10" width="125" height="60" as="geometry" />
        </mxCell>
        <mxCell id="2_GQjSXcazI8ApmPF3El-45" value="" style="ellipse;whiteSpace=wrap;html=1;aspect=fixed;" vertex="1" parent="1">
          <mxGeometry x="314" y="435" width="10" height="10" as="geometry" />
        </mxCell>
        <mxCell id="2_GQjSXcazI8ApmPF3El-47" value="" style="ellipse;whiteSpace=wrap;html=1;aspect=fixed;" vertex="1" parent="1">
          <mxGeometry x="314" y="460" width="10" height="10" as="geometry" />
        </mxCell>
        <mxCell id="2_GQjSXcazI8ApmPF3El-48" value="" style="ellipse;whiteSpace=wrap;html=1;aspect=fixed;" vertex="1" parent="1">
          <mxGeometry x="315" y="486" width="10" height="10" as="geometry" />
        </mxCell>
        <mxCell id="2_GQjSXcazI8ApmPF3El-49" value="" style="endArrow=none;html=1;rounded=0;" edge="1" parent="1">
          <mxGeometry width="50" height="50" relative="1" as="geometry">
            <mxPoint x="270" y="275" as="sourcePoint" />
            <mxPoint x="290" y="175.5" as="targetPoint" />
            <Array as="points">
              <mxPoint x="270" y="275" />
            </Array>
          </mxGeometry>
        </mxCell>
        <mxCell id="2_GQjSXcazI8ApmPF3El-52" value="tem" style="rhombus;whiteSpace=wrap;html=1;" vertex="1" parent="1">
          <mxGeometry x="250" y="277" width="40" height="40" as="geometry" />
        </mxCell>
        <mxCell id="2_GQjSXcazI8ApmPF3El-53" value="" style="endArrow=none;html=1;rounded=0;entryX=0;entryY=0;entryDx=0;entryDy=0;" edge="1" parent="1" target="2_GQjSXcazI8ApmPF3El-38">
          <mxGeometry width="50" height="50" relative="1" as="geometry">
            <mxPoint x="270" y="317" as="sourcePoint" />
            <mxPoint x="320" y="267" as="targetPoint" />
          </mxGeometry>
        </mxCell>
        <mxCell id="2_GQjSXcazI8ApmPF3El-60" value="" style="endArrow=none;html=1;rounded=0;entryX=0.011;entryY=0.339;entryDx=0;entryDy=0;entryPerimeter=0;" edge="1" parent="1">
          <mxGeometry width="50" height="50" relative="1" as="geometry">
            <mxPoint x="-11.32" y="134.67000000000002" as="sourcePoint" />
            <mxPoint x="29.999999999999943" y="135.01000000000005" as="targetPoint" />
          </mxGeometry>
        </mxCell>
        <mxCell id="2_GQjSXcazI8ApmPF3El-63" value="1" style="text;html=1;align=center;verticalAlign=middle;whiteSpace=wrap;rounded=0;fontFamily=Helvetica;fontSize=12;fontColor=default;" vertex="1" parent="1">
          <mxGeometry x="510" y="123" width="60" height="30" as="geometry" />
        </mxCell>
        <mxCell id="2_GQjSXcazI8ApmPF3El-64" value="N" style="text;html=1;align=center;verticalAlign=middle;whiteSpace=wrap;rounded=0;" vertex="1" parent="1">
          <mxGeometry x="131" y="123" width="60" height="30" as="geometry" />
        </mxCell>
        <mxCell id="2_GQjSXcazI8ApmPF3El-67" value="preço" style="text;html=1;align=center;verticalAlign=middle;whiteSpace=wrap;rounded=0;" vertex="1" parent="1">
          <mxGeometry x="65" y="242.5" width="60" height="30" as="geometry" />
        </mxCell>
        <mxCell id="2_GQjSXcazI8ApmPF3El-68" value="valor (total)" style="text;html=1;align=center;verticalAlign=middle;whiteSpace=wrap;rounded=0;" vertex="1" parent="1">
          <mxGeometry x="320" y="270" width="76" height="30" as="geometry" />
        </mxCell>
        <mxCell id="2_GQjSXcazI8ApmPF3El-69" value="" style="ellipse;whiteSpace=wrap;html=1;aspect=fixed;" vertex="1" parent="1">
          <mxGeometry x="308" y="282.5" width="10" height="10" as="geometry" />
        </mxCell>
      </root>
    </mxGraphModel>
  </diagram>
  <diagram id="mUfFreIJEvnV9NQLmkXP" name="ex04">
    <mxGraphModel dx="1420" dy="794" grid="1" gridSize="10" guides="1" tooltips="1" connect="1" arrows="1" fold="1" page="1" pageScale="1" pageWidth="827" pageHeight="1169" math="0" shadow="0">
      <root>
        <mxCell id="0" />
        <mxCell id="1" parent="0" />
        <mxCell id="nj7BKtH541frxlTyLnxN-40" style="edgeStyle=orthogonalEdgeStyle;rounded=0;orthogonalLoop=1;jettySize=auto;html=1;exitX=0.5;exitY=0;exitDx=0;exitDy=0;entryX=0.75;entryY=0;entryDx=0;entryDy=0;" edge="1" parent="1" source="nj7BKtH541frxlTyLnxN-1" target="nj7BKtH541frxlTyLnxN-3">
          <mxGeometry relative="1" as="geometry">
            <mxPoint x="100" y="130" as="targetPoint" />
          </mxGeometry>
        </mxCell>
        <mxCell id="nj7BKtH541frxlTyLnxN-1" value="aviao" style="rounded=0;whiteSpace=wrap;html=1;" vertex="1" parent="1">
          <mxGeometry x="50" y="160" width="100" height="60" as="geometry" />
        </mxCell>
        <mxCell id="nj7BKtH541frxlTyLnxN-2" value="piloto" style="rounded=0;whiteSpace=wrap;html=1;" vertex="1" parent="1">
          <mxGeometry x="230" y="160" width="120" height="60" as="geometry" />
        </mxCell>
        <mxCell id="nj7BKtH541frxlTyLnxN-15" style="edgeStyle=orthogonalEdgeStyle;rounded=0;orthogonalLoop=1;jettySize=auto;html=1;exitX=1;exitY=0.5;exitDx=0;exitDy=0;entryX=0;entryY=0.5;entryDx=0;entryDy=0;" edge="1" parent="1" source="nj7BKtH541frxlTyLnxN-3" target="nj7BKtH541frxlTyLnxN-8">
          <mxGeometry relative="1" as="geometry" />
        </mxCell>
        <mxCell id="nj7BKtH541frxlTyLnxN-3" value="voo" style="rounded=0;whiteSpace=wrap;html=1;" vertex="1" parent="1">
          <mxGeometry x="480" y="160" width="70" height="60" as="geometry" />
        </mxCell>
        <mxCell id="nj7BKtH541frxlTyLnxN-4" value="passageiro" style="rounded=0;whiteSpace=wrap;html=1;" vertex="1" parent="1">
          <mxGeometry x="600" y="240" width="120" height="60" as="geometry" />
        </mxCell>
        <mxCell id="nj7BKtH541frxlTyLnxN-30" style="edgeStyle=orthogonalEdgeStyle;rounded=0;orthogonalLoop=1;jettySize=auto;html=1;exitX=1;exitY=0.5;exitDx=0;exitDy=0;entryX=0.75;entryY=1;entryDx=0;entryDy=0;" edge="1" parent="1" source="nj7BKtH541frxlTyLnxN-5">
          <mxGeometry relative="1" as="geometry">
            <mxPoint x="515" y="220" as="targetPoint" />
            <mxPoint x="382.5" y="390" as="sourcePoint" />
          </mxGeometry>
        </mxCell>
        <mxCell id="nj7BKtH541frxlTyLnxN-5" value="aeroporto" style="rounded=0;whiteSpace=wrap;html=1;" vertex="1" parent="1">
          <mxGeometry x="280" y="360" width="120" height="60" as="geometry" />
        </mxCell>
        <mxCell id="nj7BKtH541frxlTyLnxN-13" style="edgeStyle=orthogonalEdgeStyle;rounded=0;orthogonalLoop=1;jettySize=auto;html=1;exitX=0;exitY=0.5;exitDx=0;exitDy=0;entryX=1;entryY=0.5;entryDx=0;entryDy=0;" edge="1" parent="1" source="nj7BKtH541frxlTyLnxN-7" target="nj7BKtH541frxlTyLnxN-2">
          <mxGeometry relative="1" as="geometry" />
        </mxCell>
        <mxCell id="nj7BKtH541frxlTyLnxN-14" style="edgeStyle=orthogonalEdgeStyle;rounded=0;orthogonalLoop=1;jettySize=auto;html=1;exitX=1;exitY=0.5;exitDx=0;exitDy=0;entryX=0;entryY=0.5;entryDx=0;entryDy=0;" edge="1" parent="1" source="nj7BKtH541frxlTyLnxN-7" target="nj7BKtH541frxlTyLnxN-3">
          <mxGeometry relative="1" as="geometry" />
        </mxCell>
        <mxCell id="nj7BKtH541frxlTyLnxN-7" value="tem" style="rhombus;whiteSpace=wrap;html=1;" vertex="1" parent="1">
          <mxGeometry x="400" y="175" width="30" height="30" as="geometry" />
        </mxCell>
        <mxCell id="nj7BKtH541frxlTyLnxN-8" value="tem" style="rhombus;whiteSpace=wrap;html=1;" vertex="1" parent="1">
          <mxGeometry x="620" y="175" width="30" height="30" as="geometry" />
        </mxCell>
        <mxCell id="nj7BKtH541frxlTyLnxN-17" style="edgeStyle=orthogonalEdgeStyle;rounded=0;orthogonalLoop=1;jettySize=auto;html=1;exitX=0.5;exitY=1;exitDx=0;exitDy=0;entryX=0.308;entryY=0;entryDx=0;entryDy=0;entryPerimeter=0;" edge="1" parent="1" source="nj7BKtH541frxlTyLnxN-8" target="nj7BKtH541frxlTyLnxN-4">
          <mxGeometry relative="1" as="geometry" />
        </mxCell>
        <mxCell id="nj7BKtH541frxlTyLnxN-22" value="" style="endArrow=classic;startArrow=classic;html=1;rounded=0;entryX=0;entryY=1;entryDx=0;entryDy=0;" edge="1" parent="1" target="nj7BKtH541frxlTyLnxN-3">
          <mxGeometry width="50" height="50" relative="1" as="geometry">
            <mxPoint x="400" y="360" as="sourcePoint" />
            <mxPoint x="450" y="310" as="targetPoint" />
          </mxGeometry>
        </mxCell>
        <mxCell id="nj7BKtH541frxlTyLnxN-25" value="origem" style="rhombus;whiteSpace=wrap;html=1;" vertex="1" parent="1">
          <mxGeometry x="430" y="270" width="30" height="30" as="geometry" />
        </mxCell>
        <mxCell id="nj7BKtH541frxlTyLnxN-27" value="destino" style="rhombus;whiteSpace=wrap;html=1;" vertex="1" parent="1">
          <mxGeometry x="500" y="290" width="30" height="30" as="geometry" />
        </mxCell>
        <mxCell id="nj7BKtH541frxlTyLnxN-41" value="faz" style="rhombus;whiteSpace=wrap;html=1;" vertex="1" parent="1">
          <mxGeometry x="200" y="124" width="30" height="30" as="geometry" />
        </mxCell>
        <mxCell id="nj7BKtH541frxlTyLnxN-43" value="N" style="text;html=1;align=center;verticalAlign=middle;whiteSpace=wrap;rounded=0;" vertex="1" parent="1">
          <mxGeometry x="480" y="110" width="60" height="30" as="geometry" />
        </mxCell>
        <mxCell id="nj7BKtH541frxlTyLnxN-44" value="1" style="text;html=1;align=center;verticalAlign=middle;whiteSpace=wrap;rounded=0;" vertex="1" parent="1">
          <mxGeometry x="90" y="110" width="60" height="30" as="geometry" />
        </mxCell>
        <mxCell id="nj7BKtH541frxlTyLnxN-46" value="N" style="text;html=1;align=center;verticalAlign=middle;whiteSpace=wrap;rounded=0;" vertex="1" parent="1">
          <mxGeometry x="427" y="163" width="60" height="30" as="geometry" />
        </mxCell>
        <mxCell id="nj7BKtH541frxlTyLnxN-48" value="1" style="text;html=1;align=center;verticalAlign=middle;whiteSpace=wrap;rounded=0;" vertex="1" parent="1">
          <mxGeometry x="345" y="163" width="60" height="30" as="geometry" />
        </mxCell>
        <mxCell id="nj7BKtH541frxlTyLnxN-49" value="&lt;font style=&quot;font-size: 14px;&quot;&gt;&lt;b&gt;Transportadora&lt;/b&gt;&lt;/font&gt;" style="text;html=1;align=center;verticalAlign=middle;whiteSpace=wrap;rounded=0;" vertex="1" parent="1">
          <mxGeometry x="345" y="20" width="60" height="30" as="geometry" />
        </mxCell>
        <mxCell id="nj7BKtH541frxlTyLnxN-50" value="N" style="text;html=1;align=center;verticalAlign=middle;whiteSpace=wrap;rounded=0;" vertex="1" parent="1">
          <mxGeometry x="540" y="170" width="60" height="30" as="geometry" />
        </mxCell>
        <mxCell id="nj7BKtH541frxlTyLnxN-51" value="N" style="text;html=1;align=center;verticalAlign=middle;whiteSpace=wrap;rounded=0;" vertex="1" parent="1">
          <mxGeometry x="620" y="200" width="60" height="30" as="geometry" />
        </mxCell>
        <mxCell id="nj7BKtH541frxlTyLnxN-52" value="N" style="text;html=1;align=center;verticalAlign=middle;whiteSpace=wrap;rounded=0;" vertex="1" parent="1">
          <mxGeometry x="500" y="250" width="60" height="30" as="geometry" />
        </mxCell>
        <mxCell id="nj7BKtH541frxlTyLnxN-53" value="N" style="text;html=1;align=center;verticalAlign=middle;whiteSpace=wrap;rounded=0;" vertex="1" parent="1">
          <mxGeometry x="427" y="230" width="60" height="30" as="geometry" />
        </mxCell>
        <mxCell id="nj7BKtH541frxlTyLnxN-54" value="1" style="text;html=1;align=center;verticalAlign=middle;whiteSpace=wrap;rounded=0;" vertex="1" parent="1">
          <mxGeometry x="384" y="300" width="60" height="30" as="geometry" />
        </mxCell>
        <mxCell id="nj7BKtH541frxlTyLnxN-55" value="1" style="text;html=1;align=center;verticalAlign=middle;whiteSpace=wrap;rounded=0;" vertex="1" parent="1">
          <mxGeometry x="500" y="350" width="60" height="30" as="geometry" />
        </mxCell>
      </root>
    </mxGraphModel>
  </diagram>
</mxfile>
